<?xml version="1.0" encoding="utf-8"?>
<!-- Generator: Adobe Illustrator 24.1.1, SVG Export Plug-In . SVG Version: 6.00 Build 0)  -->
<svg version="1.1" id="Layer_1" xmlns="http://www.w3.org/2000/svg" xmlns:xlink="http://www.w3.org/1999/xlink" x="0px" y="0px"
	 viewBox="0 0 512 512" style="enable-background:new 0 0 512 512;" xml:space="preserve">
<g>
	<path d="M256,0C114.6,0,0,114.6,0,256s114.6,256,256,256s256-114.6,256-256S397.4,0,256,0z M236.4,120.5l11,50.7
		c-32.2,7.1-61.9,16.4-59.5,52.4h37.9v134.8H111.7v-126C111.8,132.2,185.3,124.1,236.4,120.5z M389.3,120.5l11,50.7
		c-32.2,7.1-61.9,16.4-59.5,52.4h37.9v134.8H264.6v-126C264.6,132.2,338.1,124.1,389.3,120.5z"/>
</g>
</svg>
